<svg width="192" height="46" viewBox="0 0 192 46" fill="none" xmlns="http://www.w3.org/2000/svg">
<g clip-path="url(#clip0_14_28361)">
<path fill-rule="evenodd" clip-rule="evenodd" d="M25.6324 39.9659L19.2039 33.5374L12.7754 39.9659L17.5921 44.7844C18.4787 45.671 19.9291 45.671 20.8138 44.7844L25.6305 39.9659H25.6324Z" fill="#6941C6"/>
<path fill-rule="evenodd" clip-rule="evenodd" d="M21.1069 31.6343L27.5354 38.0628L32.7991 32.7991C40.2774 25.3208 40.2774 13.0851 32.7991 5.60871C25.3208 -1.86957 13.087 -1.86957 5.60871 5.60871C-1.86957 13.087 -1.86957 25.3227 5.60871 32.7991L10.8724 38.0628L17.3009 31.6343L12.0372 26.3706C8.10889 22.4423 8.10889 15.9674 12.0372 12.0372C15.9674 8.10889 22.4404 8.10889 26.3706 12.0372C30.3008 15.9655 30.3008 22.4404 26.3706 26.3706L21.3684 31.3728L21.1069 31.6343Z" fill="#6941C6"/>
<path d="M64.7673 33.7783H61.0578L50.2558 20.0384V33.7783H45.9529V12.7085H49.6623L60.4643 26.4484V12.7085H64.7673V33.7783Z" fill="#101828"/>
<path d="M75.5395 34.1047C73.2638 34.1047 71.3998 33.374 69.9457 31.9087C68.4916 30.4453 67.7645 28.5851 67.7645 26.3297C67.7645 24.0743 68.5008 22.2734 69.9753 20.81C71.448 19.3466 73.3139 18.614 75.5692 18.614C77.8246 18.614 79.7331 19.3911 81.2373 20.9436C82.7396 22.4978 83.4333 24.6196 83.3146 27.309H71.741C71.8189 28.2382 72.2047 29.0154 72.8984 29.6385C73.5902 30.2617 74.5398 30.5733 75.7473 30.5733C76.478 30.5733 77.1272 30.4305 77.691 30.143C78.2549 29.8574 78.6555 29.4549 78.8929 28.9412H83.1365C82.7007 30.4639 81.7918 31.7066 80.4064 32.6655C79.0209 33.6244 77.3998 34.1047 75.5395 34.1047ZM75.4505 21.908C74.5213 21.908 73.7442 22.151 73.121 22.6351C72.4978 23.121 72.086 23.7869 71.8894 24.6382H78.8632C78.6462 23.709 78.2141 23.0209 77.5723 22.5757C76.9287 22.1306 76.2221 21.908 75.4505 21.908Z" fill="#101828"/>
<path d="M92.3063 34.1047C90.3477 34.1047 88.6951 33.3443 87.3505 31.8197C86.0058 30.297 85.3325 28.4756 85.3325 26.3594C85.3325 24.2431 86.0039 22.4236 87.3505 20.899C88.6951 19.3763 90.3477 18.614 92.3063 18.614C93.2559 18.614 94.1073 18.8125 94.8584 19.2075C95.6096 19.6026 96.1846 20.0681 96.5796 20.6023V18.9404H100.645V33.7783H96.5796V32.1165C96.1846 32.6506 95.6096 33.1162 94.8584 33.5112C94.1073 33.9063 93.2559 34.1047 92.3063 34.1047ZM90.4516 29.2676C91.1341 30.0206 92.0392 30.3953 93.1669 30.3953C94.2946 30.3953 95.1997 30.0206 95.8822 29.2676C96.5648 28.5164 96.906 27.5464 96.906 26.3594C96.906 25.1723 96.5648 24.2042 95.8822 23.4512C95.1997 22.7 94.2946 22.3235 93.1669 22.3235C92.0392 22.3235 91.1341 22.7 90.4516 23.4512C89.769 24.2023 89.4278 25.1723 89.4278 26.3594C89.4278 27.5464 89.769 28.5164 90.4516 29.2676Z" fill="#101828"/>
<path d="M104.592 33.7784V18.9405H108.658V21.3146C108.914 20.5838 109.385 19.9754 110.067 19.4895C110.75 19.0054 111.506 18.7625 112.337 18.7625C112.851 18.7625 113.306 18.8218 113.702 18.9405V23.0654C113.05 22.8484 112.436 22.739 111.863 22.739C110.893 22.739 110.115 23.0895 109.533 23.7925C108.949 24.4954 108.658 25.4599 108.658 26.6859V33.7784H104.592Z" fill="#101828"/>
<path d="M124.683 34.1047C123.733 34.1047 122.872 33.9062 122.101 33.5112C121.329 33.1161 120.756 32.6506 120.38 32.1164V33.7783H116.314V11.5215H120.38V20.6023C120.754 20.0681 121.329 19.6044 122.101 19.2075C122.872 18.8124 123.733 18.614 124.683 18.614C126.641 18.614 128.292 19.3763 129.638 20.899C130.983 22.4236 131.656 24.2431 131.656 26.3593C131.656 28.4756 130.983 30.2969 129.638 31.8197C128.292 33.3424 126.641 34.1047 124.683 34.1047ZM121.077 29.2676C121.759 30.0206 122.665 30.3952 123.792 30.3952C124.92 30.3952 125.825 30.0206 126.508 29.2676C127.19 28.5164 127.531 27.5464 127.531 26.3593C127.531 25.1723 127.19 24.2041 126.508 23.4511C125.825 22.7 124.92 22.3234 123.792 22.3234C122.665 22.3234 121.759 22.7 121.077 23.4511C120.394 24.2023 120.053 25.1723 120.053 26.3593C120.053 27.5464 120.394 28.5164 121.077 29.2676Z" fill="#101828"/>
<path d="M136.642 16.5071C135.948 16.5071 135.345 16.2548 134.832 15.7503C134.318 15.2459 134.06 14.6375 134.06 13.9253C134.06 13.2131 134.318 12.6047 134.832 12.1002C135.345 11.5957 135.95 11.3435 136.642 11.3435C137.373 11.3435 137.992 11.5957 138.497 12.1002C139.001 12.6047 139.253 13.2131 139.253 13.9253C139.253 14.6375 139.001 15.2459 138.497 15.7503C137.992 16.2548 137.373 16.5071 136.642 16.5071ZM134.624 33.7783V18.9405H138.689V33.7783H134.624Z" fill="#101828"/>
<path d="M144.773 34.0157C143.942 34.0157 143.239 33.7301 142.666 33.1551C142.093 32.582 141.805 31.8791 141.805 31.0481C141.805 30.2172 142.091 29.5143 142.666 28.9412C143.241 28.368 143.942 28.0806 144.773 28.0806C145.604 28.0806 146.281 28.3736 146.865 28.956C147.449 29.5402 147.741 30.2376 147.741 31.0481C147.741 31.8587 147.448 32.556 146.865 33.1403C146.281 33.7245 145.584 34.0157 144.773 34.0157Z" fill="#101828"/>
<path d="M169.582 33.7783V25.8549C169.582 23.5012 168.81 22.3235 167.267 22.3235C166.377 22.3235 165.668 22.6592 165.145 23.3325C164.62 24.0057 164.339 25.0054 164.3 26.3297V33.7783H160.234V25.8549C160.234 23.5012 159.462 22.3235 157.919 22.3235C157.009 22.3235 156.287 22.6796 155.753 23.3918C155.219 24.104 154.952 25.1538 154.952 26.5374V33.7783H150.886V18.9404H154.952V20.632C155.881 19.2873 157.196 18.614 158.899 18.614C160.976 18.614 162.508 19.5247 163.498 21.3442C163.934 20.4947 164.587 19.827 165.457 19.3411C166.327 18.857 167.208 18.614 168.098 18.614C169.858 18.614 171.223 19.1983 172.193 20.3649C173.162 21.5315 173.647 23.1359 173.647 25.1723V33.7783H169.582Z" fill="#101828"/>
<path d="M184.212 34.1047C181.936 34.1047 180.072 33.374 178.618 31.9087C177.164 30.4453 176.437 28.5851 176.437 26.3297C176.437 24.0743 177.173 22.2734 178.648 20.81C180.12 19.3466 181.986 18.614 184.242 18.614C186.497 18.614 188.406 19.3911 189.91 20.9436C191.412 22.4978 192.106 24.6196 191.987 27.309H180.414C180.491 28.2382 180.877 29.0154 181.571 29.6385C182.263 30.2617 183.212 30.5733 184.42 30.5733C185.151 30.5733 185.8 30.4305 186.363 30.143C186.927 29.8574 187.328 29.4549 187.565 28.9412H191.809C191.373 30.4639 190.464 31.7066 189.079 32.6655C187.693 33.6244 186.072 34.1047 184.212 34.1047ZM184.123 21.908C183.194 21.908 182.417 22.151 181.793 22.6351C181.17 23.121 180.759 23.7869 180.562 24.6382H187.536C187.319 23.709 186.887 23.0209 186.245 22.5757C185.601 22.1306 184.895 21.908 184.123 21.908Z" fill="#101828"/>
</g>
<defs>
<clipPath id="clip0_14_28361">
<rect width="192" height="45.4484" fill="white"/>
</clipPath>
</defs>
</svg>
